<svg width="258" height="201" viewBox="0 0 258 201" fill="none" xmlns="http://www.w3.org/2000/svg">
<path d="M83.6528 69.8787C76.1228 57.931 73.9567 42.6873 78.4953 29.2975C83.0339 15.9078 94.2772 4.887 107.893 1.28207C121.509 -2.32286 137.084 1.79706 146.781 12.0969C149.669 15.1868 152.041 18.7917 154.414 22.3967L83.6528 69.8787Z" fill="#FDDED5"/>
<path d="M92.4235 68.23C86.5439 58.9602 84.8935 47.1154 88.4006 36.7126C91.9077 26.3098 100.675 17.761 111.3 14.98C121.924 12.1991 133.993 15.392 141.523 23.3229C143.792 25.7948 145.649 28.5758 147.402 31.3567L90.5668 69.878" fill="#FEF6A7"/>
<path d="M107.174 75.543C99.4378 65.8612 96.7559 49.7935 99.3347 42.0687C102.017 34.3438 108.515 28.0609 116.354 26.001C124.194 23.941 133.168 26.413 138.738 32.3869C140.388 34.2408 141.729 36.3008 143.07 38.3607L107.174 75.543Z" fill="#B1E0E7"/>
<path d="M192.681 138.989H130.481C130.481 138.989 129.862 153.512 131.719 165.46C132.235 172.464 133.163 182.763 134.401 190.076C134.401 190.076 135.329 199.655 142.034 199.552C142.034 199.552 150.183 199.552 154.103 197.698C157.61 196.05 156.785 188.531 156.578 186.883L155.031 180.806C155.753 180.806 156.372 180.909 157.094 180.909H165.862C166.584 180.909 167.203 180.806 167.822 180.806L166.274 186.883C166.068 188.531 165.243 196.05 168.75 197.698C172.67 199.552 180.819 199.552 180.819 199.552C187.626 199.655 188.452 190.076 188.452 190.076C189.689 182.763 190.618 173.906 191.134 166.902C191.134 166.593 191.134 166.284 191.134 166.078C193.3 153.924 192.681 138.989 192.681 138.989Z" fill="white"/>
<path d="M144.304 177.614C144.304 177.614 149.565 187.501 156.786 187.295C156.786 185.544 155.135 179.776 155.135 179.776C155.135 179.776 148.121 179.467 144.304 177.614Z" fill="#D2DEED"/>
<path d="M167.923 179.777C167.923 179.777 166.273 185.03 166.273 187.09C175.041 186.06 179.373 177.717 179.373 177.717C175.556 179.571 167.923 179.777 167.923 179.777Z" fill="#D2DEED"/>
<path d="M192.785 137.856C172.052 137.856 151.319 137.856 130.586 137.856C129.967 137.856 128.935 138.371 128.935 139.092C128.523 149.495 129.657 159.692 130.586 170.095C131.204 176.892 131.72 183.69 132.958 190.385C133.371 192.96 134.093 195.638 135.743 197.698C139.56 202.436 150.597 201.2 155.135 198.316C160.808 194.711 157.817 185.544 156.579 180.394C155.857 180.909 155.238 181.424 154.516 181.836C158.849 182.145 163.387 182.145 167.72 181.836C167.307 181.527 166.791 181.218 166.379 180.806C165.141 185.75 162.149 194.917 167.72 198.316C172.464 201.303 183.295 202.024 187.215 197.389C188.968 195.226 189.69 192.548 190.103 189.87C191.341 183.175 191.96 176.377 192.579 169.683C193.507 159.383 194.642 149.083 194.229 138.68C194.126 137.135 191.135 137.547 191.238 138.886C191.547 146.302 191.341 153.718 190.516 161.031C189.484 170.713 188.865 180.6 187.112 190.282C186.493 193.784 185.358 197.698 181.129 198.213C178.344 198.522 173.909 198.007 171.33 196.977C165.141 194.608 168.338 185.338 169.473 180.497C169.679 179.776 168.545 179.467 168.132 179.467C164.006 179.673 159.777 179.776 155.651 179.467C154.826 179.364 153.382 179.879 153.588 180.909C154.929 186.265 158.127 195.329 150.597 197.286C147.708 198.007 142.138 198.934 139.456 197.183C137.084 195.535 136.362 192.342 135.846 189.664C134.299 181.115 133.989 172.464 132.958 163.915C131.926 155.469 131.514 147.023 131.823 138.577C131.308 138.989 130.689 139.401 130.173 139.813C150.906 139.813 171.639 139.813 192.372 139.813C194.229 140.019 194.848 137.856 192.785 137.856Z" fill="#D2DEED"/>
<path d="M123.467 136.722C123.467 136.722 127.284 141.666 136.567 143.108" stroke="white" stroke-width="1.42451" stroke-miterlimit="10" stroke-linecap="round" stroke-linejoin="round"/>
<path d="M167.824 133.944C175.973 134.047 184.122 133.017 192.064 131.06" stroke="white" stroke-width="1.42451" stroke-miterlimit="10" stroke-linecap="round" stroke-linejoin="round"/>
<path d="M130.689 146.199C130.689 146.199 140.901 156.396 154.723 152.482C154.723 152.482 166.482 157.014 177.932 151.04C177.932 151.04 177.313 157.632 179.891 166.077C179.891 166.077 182.058 169.167 182.78 160.413L183.811 141.461L139.25 143.933L130.689 146.199Z" fill="#D2DEED"/>
<path d="M186.493 151.967C186.493 151.967 190.619 161.443 189.794 168.138L192.785 156.808C192.785 156.808 186.802 152.997 186.183 148.877L186.493 151.967Z" fill="#D2DEED"/>
<path d="M202.481 122.304C192.888 126.423 166.379 128.38 166.379 128.38C143.17 128.792 126.15 123.746 126.15 123.746C120.167 120.347 119.033 123.746 119.033 123.746V127.453C119.033 128.277 119.033 129.204 119.033 130.028C119.033 130.955 119.136 131.882 119.136 132.809C119.239 134.457 119.136 137.032 120.064 138.577C123.468 144.345 130.379 146.508 136.362 147.744C147.296 150.01 158.436 150.731 169.576 149.804C169.473 151.864 169.473 153.821 169.267 155.469C168.957 158.25 168.854 161.134 169.267 163.812C169.37 164.842 169.576 166.799 170.711 167.314L170.814 170.095C170.814 170.404 171.02 170.61 171.33 170.61C171.639 170.61 171.846 170.301 171.846 170.095L171.742 167.623C172.155 167.726 172.671 167.726 173.29 167.829L173.393 170.404C173.393 170.713 173.599 170.919 173.909 170.919C174.218 170.919 174.424 170.61 174.424 170.404L174.321 167.932C174.94 168.035 175.559 168.035 176.178 168.035L176.075 170.61C176.075 170.919 176.281 171.125 176.59 171.228C176.9 171.228 177.106 171.022 177.106 170.713L177.209 168.241C177.725 168.241 178.241 168.241 178.653 168.344L178.55 170.919C178.55 171.228 178.757 171.434 179.066 171.537C179.375 171.537 179.582 171.331 179.582 171.022L179.685 168.344C180.304 168.344 180.82 168.344 181.335 168.344L181.232 170.919C181.232 171.228 181.438 171.434 181.748 171.537C182.057 171.537 182.264 171.331 182.264 171.022L182.367 168.447C182.986 168.447 183.501 168.447 183.914 168.344L183.811 171.022C183.811 171.331 184.017 171.537 184.327 171.537C184.636 171.537 184.842 171.331 184.842 171.022L184.946 168.035C186.183 167.108 186.596 163.503 187.009 162.164C188.143 158.044 188.35 152.379 188.35 147.023C189.072 146.817 189.794 146.714 190.413 146.508C194.332 145.478 198.871 145.478 202.172 142.8C203.925 141.358 204.853 139.195 205.163 137.032C205.369 135.384 205.988 132.294 206.091 129.925C207.845 121.171 202.481 122.304 202.481 122.304Z" fill="#E8A523"/>
<path d="M152.97 142.182C146.987 142.182 140.798 141.049 135.228 138.783C134.919 138.68 134.815 138.371 134.919 138.062C135.022 137.753 135.331 137.65 135.641 137.753C141.108 139.916 147.09 141.049 152.97 141.049C153.073 141.049 153.073 141.049 153.176 141.049C153.486 141.049 153.692 141.255 153.692 141.564C153.692 141.873 153.486 142.079 153.176 142.079C153.176 142.182 153.073 142.182 152.97 142.182Z" fill="white"/>
<path d="M163.388 138.679C153.177 138.679 142.965 137.134 133.166 134.147C132.856 134.044 132.753 133.735 132.753 133.426C132.856 133.117 133.166 133.014 133.475 133.014C149.36 137.958 166.483 138.782 182.781 135.589C183.09 135.589 183.4 135.692 183.4 136.001C183.503 136.31 183.296 136.619 182.987 136.619C176.489 138.061 169.99 138.679 163.388 138.679Z" fill="white"/>
<path d="M181.028 164.841C180.719 164.841 180.512 164.532 180.512 164.223C180.719 160 181.131 155.777 181.647 151.658C181.647 151.349 181.956 151.143 182.266 151.143C182.575 151.143 182.781 151.452 182.781 151.761C182.266 155.88 181.853 160.103 181.647 164.326C181.544 164.635 181.337 164.841 181.028 164.841Z" fill="white"/>
<path d="M184.744 164.841C184.434 164.841 184.125 164.532 184.228 164.223L185.569 150.834C185.569 150.525 185.878 150.319 186.188 150.319C186.497 150.319 186.703 150.628 186.703 150.937L185.362 164.326C185.259 164.635 185.053 164.841 184.744 164.841Z" fill="white"/>
<path d="M173.601 163.915C173.292 163.915 173.086 163.606 173.086 163.4L173.292 155.881C173.292 155.572 173.601 155.263 173.808 155.366C174.117 155.366 174.323 155.675 174.323 155.881L174.117 163.4C174.117 163.606 173.911 163.915 173.601 163.915Z" fill="white"/>
<mask id="path-18-outside-1_2143_18481" maskUnits="userSpaceOnUse" x="69.6147" y="10.949" width="188" height="122" fill="black">
<rect fill="white" x="69.6147" y="10.949" width="188" height="122"/>
<path d="M254.778 92.4335C254.778 92.3305 254.778 92.1245 254.778 92.0215C254.778 91.6095 254.674 91.1975 254.674 90.6825V90.5795C254.674 90.0645 254.571 89.6525 254.468 89.2405V89.1375C254.365 88.5195 254.262 88.0046 254.159 87.3866V87.2836C254.056 86.7686 253.849 86.2536 253.746 85.7386C253.746 85.6356 253.746 85.6356 253.643 85.5326C253.54 85.0176 253.333 84.6056 253.127 84.1936C253.127 84.0906 253.024 83.9876 253.024 83.8846C252.818 83.3696 252.508 82.8547 252.302 82.2367C252.096 81.7217 251.786 81.3097 251.477 80.8977C251.374 80.7947 251.374 80.6917 251.27 80.5887C251.064 80.2797 250.858 79.8677 250.548 79.5587C250.445 79.4557 250.445 79.3527 250.342 79.2497C249.723 78.4257 249.001 77.6017 248.279 76.7778C248.176 76.6748 247.97 76.4688 247.867 76.3658C247.763 76.2628 247.763 76.2628 247.66 76.1598C247.557 76.0568 247.454 76.0568 247.454 75.9538C247.041 75.5418 246.629 75.2328 246.216 74.9238C246.01 74.8208 245.907 74.6148 245.7 74.5118C243.741 72.9668 241.471 71.7309 238.996 70.9069C238.996 53.1912 224.967 38.8745 207.432 38.0505C207.432 37.9475 207.432 37.8445 207.329 37.8445C207.329 37.8445 207.329 37.7415 207.225 37.5355C203.203 23.8368 190.618 13.949 175.558 13.949C164.934 13.949 155.444 18.9959 149.461 26.8237C145.851 25.4848 142.035 24.7638 138.012 24.7638C121.611 24.7638 108.098 36.7115 105.52 52.2642C104.694 52.1612 103.972 52.1612 103.147 52.1612C93.451 52.1612 84.8896 56.6932 79.3195 63.697C79.2163 63.8 79.2163 63.903 79.1132 64.006C77.6691 65.86 76.4313 67.9199 75.3998 70.0829C75.3998 70.1859 75.2966 70.2889 75.2966 70.3919C75.1935 70.5979 75.0903 70.8039 74.9872 71.0099C74.6777 71.8339 74.3683 72.6578 74.0588 73.5848C74.0588 73.6878 73.9557 73.7908 73.9557 73.8938C73.7494 74.6148 73.5431 75.4388 73.3368 76.1598V76.2628C73.0273 77.4988 72.821 78.7347 72.7179 79.9707V80.0737C72.6147 81.3097 72.6147 82.5457 72.6147 83.8846V83.9876C72.7179 85.3266 72.821 86.5626 73.0273 87.9016C73.1305 88.6225 73.3368 89.2405 73.5431 89.9615C73.6462 90.3735 73.7494 90.7855 73.9557 91.1975C74.0588 91.4035 74.0588 91.6095 74.162 91.9185C74.162 92.0215 74.2651 92.2275 74.2651 92.3305C74.2651 92.4335 74.2651 92.4335 74.3683 92.5365V92.6395C74.3683 92.6395 74.3683 92.6395 74.3683 92.7425C75.0903 94.9054 76.1218 96.8624 77.2565 98.8193C77.4628 99.2313 77.7722 99.6433 77.9785 99.9523C78.1848 100.261 78.4943 100.673 78.7006 100.982L78.8037 101.085C79.01 101.394 79.3195 101.703 79.5258 102.012C79.5258 102.012 79.5258 102.115 79.6289 102.115C80.351 102.939 80.9699 103.763 81.6919 104.484C86.6431 109.428 92.2132 111.385 95.514 112.209C95.7203 112.209 95.9266 112.312 96.0298 112.312C96.7518 112.415 97.2676 112.518 97.7833 112.621C97.7833 112.621 97.7833 112.621 97.8865 112.621C97.9896 112.621 98.0928 112.621 98.0928 112.621H98.1959C98.2991 112.621 98.2991 112.621 98.4022 112.621H98.5054H98.6085H98.7117C99.5369 114.99 100.775 117.153 102.219 119.11C102.425 119.419 102.631 119.625 102.838 119.934C103.147 120.243 103.353 120.655 103.663 120.964C104.179 121.582 104.694 122.097 105.107 122.509L105.21 122.612C105.416 122.818 105.52 122.921 105.726 123.127L105.829 123.23C105.932 123.333 106.138 123.436 106.242 123.539L106.345 123.642C106.448 123.745 106.551 123.848 106.654 123.951L106.757 124.054C106.861 124.157 106.964 124.157 107.067 124.26C107.067 124.26 107.067 124.26 107.17 124.26C107.273 124.26 107.273 124.363 107.376 124.363H107.479C107.583 124.466 107.686 124.466 107.686 124.569C107.686 124.569 107.789 124.569 107.789 124.672C108.098 124.981 108.511 125.187 108.82 125.393C108.924 125.496 109.027 125.496 109.027 125.599C109.233 125.805 109.542 125.908 109.749 126.011C120.683 132.5 130.482 125.084 130.482 125.084C153.175 134.972 189.69 125.496 189.69 125.496C204.647 133.118 214.136 128.586 214.136 128.586C214.343 128.483 214.446 128.38 214.652 128.277C216.922 127.144 218.985 125.702 220.738 124.054C220.944 123.848 221.254 123.642 221.46 123.436C221.77 123.127 222.079 122.818 222.388 122.509C222.595 122.303 222.801 122.097 223.007 121.891C223.317 121.582 223.523 121.273 223.729 121.067C225.38 119.11 226.102 117.462 226.411 116.638C226.514 116.535 226.514 116.432 226.514 116.329C226.514 116.329 226.514 116.329 226.514 116.226V116.123C227.03 116.226 227.546 116.329 228.062 116.329C228.268 116.329 228.371 116.329 228.577 116.432C228.577 116.432 228.577 116.432 228.681 116.432C228.887 116.432 229.196 116.432 229.403 116.535C229.506 116.535 229.506 116.535 229.609 116.535C230.022 116.535 230.434 116.535 230.847 116.638C230.95 116.638 231.053 116.638 231.156 116.638C231.569 116.638 231.981 116.638 232.394 116.638C232.497 116.638 232.497 116.638 232.6 116.638C233.013 116.638 233.426 116.535 233.838 116.535H233.941C234.354 116.535 234.766 116.432 235.179 116.329C235.179 116.329 235.179 116.329 235.282 116.329C235.695 116.226 236.107 116.226 236.52 116.123C240.852 115.093 243.431 113.136 243.431 113.136C253.54 107.368 254.365 95.4204 254.365 95.4204C254.365 94.9054 254.365 94.3904 254.365 93.9784C254.778 93.1545 254.778 92.8455 254.778 92.4335Z"/>
</mask>
<path d="M254.778 92.4335C254.778 92.3305 254.778 92.1245 254.778 92.0215C254.778 91.6095 254.674 91.1975 254.674 90.6825V90.5795C254.674 90.0645 254.571 89.6525 254.468 89.2405V89.1375C254.365 88.5195 254.262 88.0046 254.159 87.3866V87.2836C254.056 86.7686 253.849 86.2536 253.746 85.7386C253.746 85.6356 253.746 85.6356 253.643 85.5326C253.54 85.0176 253.333 84.6056 253.127 84.1936C253.127 84.0906 253.024 83.9876 253.024 83.8846C252.818 83.3696 252.508 82.8547 252.302 82.2367C252.096 81.7217 251.786 81.3097 251.477 80.8977C251.374 80.7947 251.374 80.6917 251.27 80.5887C251.064 80.2797 250.858 79.8677 250.548 79.5587C250.445 79.4557 250.445 79.3527 250.342 79.2497C249.723 78.4257 249.001 77.6017 248.279 76.7778C248.176 76.6748 247.97 76.4688 247.867 76.3658C247.763 76.2628 247.763 76.2628 247.66 76.1598C247.557 76.0568 247.454 76.0568 247.454 75.9538C247.041 75.5418 246.629 75.2328 246.216 74.9238C246.01 74.8208 245.907 74.6148 245.7 74.5118C243.741 72.9668 241.471 71.7309 238.996 70.9069C238.996 53.1912 224.967 38.8745 207.432 38.0505C207.432 37.9475 207.432 37.8445 207.329 37.8445C207.329 37.8445 207.329 37.7415 207.225 37.5355C203.203 23.8368 190.618 13.949 175.558 13.949C164.934 13.949 155.444 18.9959 149.461 26.8237C145.851 25.4848 142.035 24.7638 138.012 24.7638C121.611 24.7638 108.098 36.7115 105.52 52.2642C104.694 52.1612 103.972 52.1612 103.147 52.1612C93.451 52.1612 84.8896 56.6932 79.3195 63.697C79.2163 63.8 79.2163 63.903 79.1132 64.006C77.6691 65.86 76.4313 67.9199 75.3998 70.0829C75.3998 70.1859 75.2966 70.2889 75.2966 70.3919C75.1935 70.5979 75.0903 70.8039 74.9872 71.0099C74.6777 71.8339 74.3683 72.6578 74.0588 73.5848C74.0588 73.6878 73.9557 73.7908 73.9557 73.8938C73.7494 74.6148 73.5431 75.4388 73.3368 76.1598V76.2628C73.0273 77.4988 72.821 78.7347 72.7179 79.9707V80.0737C72.6147 81.3097 72.6147 82.5457 72.6147 83.8846V83.9876C72.7179 85.3266 72.821 86.5626 73.0273 87.9016C73.1305 88.6225 73.3368 89.2405 73.5431 89.9615C73.6462 90.3735 73.7494 90.7855 73.9557 91.1975C74.0588 91.4035 74.0588 91.6095 74.162 91.9185C74.162 92.0215 74.2651 92.2275 74.2651 92.3305C74.2651 92.4335 74.2651 92.4335 74.3683 92.5365V92.6395C74.3683 92.6395 74.3683 92.6395 74.3683 92.7425C75.0903 94.9054 76.1218 96.8624 77.2565 98.8193C77.4628 99.2313 77.7722 99.6433 77.9785 99.9523C78.1848 100.261 78.4943 100.673 78.7006 100.982L78.8037 101.085C79.01 101.394 79.3195 101.703 79.5258 102.012C79.5258 102.012 79.5258 102.115 79.6289 102.115C80.351 102.939 80.9699 103.763 81.6919 104.484C86.6431 109.428 92.2132 111.385 95.514 112.209C95.7203 112.209 95.9266 112.312 96.0298 112.312C96.7518 112.415 97.2676 112.518 97.7833 112.621C97.7833 112.621 97.7833 112.621 97.8865 112.621C97.9896 112.621 98.0928 112.621 98.0928 112.621H98.1959C98.2991 112.621 98.2991 112.621 98.4022 112.621H98.5054H98.6085H98.7117C99.5369 114.99 100.775 117.153 102.219 119.11C102.425 119.419 102.631 119.625 102.838 119.934C103.147 120.243 103.353 120.655 103.663 120.964C104.179 121.582 104.694 122.097 105.107 122.509L105.21 122.612C105.416 122.818 105.52 122.921 105.726 123.127L105.829 123.23C105.932 123.333 106.138 123.436 106.242 123.539L106.345 123.642C106.448 123.745 106.551 123.848 106.654 123.951L106.757 124.054C106.861 124.157 106.964 124.157 107.067 124.26C107.067 124.26 107.067 124.26 107.17 124.26C107.273 124.26 107.273 124.363 107.376 124.363H107.479C107.583 124.466 107.686 124.466 107.686 124.569C107.686 124.569 107.789 124.569 107.789 124.672C108.098 124.981 108.511 125.187 108.82 125.393C108.924 125.496 109.027 125.496 109.027 125.599C109.233 125.805 109.542 125.908 109.749 126.011C120.683 132.5 130.482 125.084 130.482 125.084C153.175 134.972 189.69 125.496 189.69 125.496C204.647 133.118 214.136 128.586 214.136 128.586C214.343 128.483 214.446 128.38 214.652 128.277C216.922 127.144 218.985 125.702 220.738 124.054C220.944 123.848 221.254 123.642 221.46 123.436C221.77 123.127 222.079 122.818 222.388 122.509C222.595 122.303 222.801 122.097 223.007 121.891C223.317 121.582 223.523 121.273 223.729 121.067C225.38 119.11 226.102 117.462 226.411 116.638C226.514 116.535 226.514 116.432 226.514 116.329C226.514 116.329 226.514 116.329 226.514 116.226V116.123C227.03 116.226 227.546 116.329 228.062 116.329C228.268 116.329 228.371 116.329 228.577 116.432C228.577 116.432 228.577 116.432 228.681 116.432C228.887 116.432 229.196 116.432 229.403 116.535C229.506 116.535 229.506 116.535 229.609 116.535C230.022 116.535 230.434 116.535 230.847 116.638C230.95 116.638 231.053 116.638 231.156 116.638C231.569 116.638 231.981 116.638 232.394 116.638C232.497 116.638 232.497 116.638 232.6 116.638C233.013 116.638 233.426 116.535 233.838 116.535H233.941C234.354 116.535 234.766 116.432 235.179 116.329C235.179 116.329 235.179 116.329 235.282 116.329C235.695 116.226 236.107 116.226 236.52 116.123C240.852 115.093 243.431 113.136 243.431 113.136C253.54 107.368 254.365 95.4204 254.365 95.4204C254.365 94.9054 254.365 94.3904 254.365 93.9784C254.778 93.1545 254.778 92.8455 254.778 92.4335Z" fill="white"/>
<path d="M254.778 92.4335C254.778 92.3305 254.778 92.1245 254.778 92.0215C254.778 91.6095 254.674 91.1975 254.674 90.6825V90.5795C254.674 90.0645 254.571 89.6525 254.468 89.2405V89.1375C254.365 88.5195 254.262 88.0046 254.159 87.3866V87.2836C254.056 86.7686 253.849 86.2536 253.746 85.7386C253.746 85.6356 253.746 85.6356 253.643 85.5326C253.54 85.0176 253.333 84.6056 253.127 84.1936C253.127 84.0906 253.024 83.9876 253.024 83.8846C252.818 83.3696 252.508 82.8547 252.302 82.2367C252.096 81.7217 251.786 81.3097 251.477 80.8977C251.374 80.7947 251.374 80.6917 251.27 80.5887C251.064 80.2797 250.858 79.8677 250.548 79.5587C250.445 79.4557 250.445 79.3527 250.342 79.2497C249.723 78.4257 249.001 77.6017 248.279 76.7778C248.176 76.6748 247.97 76.4688 247.867 76.3658C247.763 76.2628 247.763 76.2628 247.66 76.1598C247.557 76.0568 247.454 76.0568 247.454 75.9538C247.041 75.5418 246.629 75.2328 246.216 74.9238C246.01 74.8208 245.907 74.6148 245.7 74.5118C243.741 72.9668 241.471 71.7309 238.996 70.9069C238.996 53.1912 224.967 38.8745 207.432 38.0505C207.432 37.9475 207.432 37.8445 207.329 37.8445C207.329 37.8445 207.329 37.7415 207.225 37.5355C203.203 23.8368 190.618 13.949 175.558 13.949C164.934 13.949 155.444 18.9959 149.461 26.8237C145.851 25.4848 142.035 24.7638 138.012 24.7638C121.611 24.7638 108.098 36.7115 105.52 52.2642C104.694 52.1612 103.972 52.1612 103.147 52.1612C93.451 52.1612 84.8896 56.6932 79.3195 63.697C79.2163 63.8 79.2163 63.903 79.1132 64.006C77.6691 65.86 76.4313 67.9199 75.3998 70.0829C75.3998 70.1859 75.2966 70.2889 75.2966 70.3919C75.1935 70.5979 75.0903 70.8039 74.9872 71.0099C74.6777 71.8339 74.3683 72.6578 74.0588 73.5848C74.0588 73.6878 73.9557 73.7908 73.9557 73.8938C73.7494 74.6148 73.5431 75.4388 73.3368 76.1598V76.2628C73.0273 77.4988 72.821 78.7347 72.7179 79.9707V80.0737C72.6147 81.3097 72.6147 82.5457 72.6147 83.8846V83.9876C72.7179 85.3266 72.821 86.5626 73.0273 87.9016C73.1305 88.6225 73.3368 89.2405 73.5431 89.9615C73.6462 90.3735 73.7494 90.7855 73.9557 91.1975C74.0588 91.4035 74.0588 91.6095 74.162 91.9185C74.162 92.0215 74.2651 92.2275 74.2651 92.3305C74.2651 92.4335 74.2651 92.4335 74.3683 92.5365V92.6395C74.3683 92.6395 74.3683 92.6395 74.3683 92.7425C75.0903 94.9054 76.1218 96.8624 77.2565 98.8193C77.4628 99.2313 77.7722 99.6433 77.9785 99.9523C78.1848 100.261 78.4943 100.673 78.7006 100.982L78.8037 101.085C79.01 101.394 79.3195 101.703 79.5258 102.012C79.5258 102.012 79.5258 102.115 79.6289 102.115C80.351 102.939 80.9699 103.763 81.6919 104.484C86.6431 109.428 92.2132 111.385 95.514 112.209C95.7203 112.209 95.9266 112.312 96.0298 112.312C96.7518 112.415 97.2676 112.518 97.7833 112.621C97.7833 112.621 97.7833 112.621 97.8865 112.621C97.9896 112.621 98.0928 112.621 98.0928 112.621H98.1959C98.2991 112.621 98.2991 112.621 98.4022 112.621H98.5054H98.6085H98.7117C99.5369 114.99 100.775 117.153 102.219 119.11C102.425 119.419 102.631 119.625 102.838 119.934C103.147 120.243 103.353 120.655 103.663 120.964C104.179 121.582 104.694 122.097 105.107 122.509L105.21 122.612C105.416 122.818 105.52 122.921 105.726 123.127L105.829 123.23C105.932 123.333 106.138 123.436 106.242 123.539L106.345 123.642C106.448 123.745 106.551 123.848 106.654 123.951L106.757 124.054C106.861 124.157 106.964 124.157 107.067 124.26C107.067 124.26 107.067 124.26 107.17 124.26C107.273 124.26 107.273 124.363 107.376 124.363H107.479C107.583 124.466 107.686 124.466 107.686 124.569C107.686 124.569 107.789 124.569 107.789 124.672C108.098 124.981 108.511 125.187 108.82 125.393C108.924 125.496 109.027 125.496 109.027 125.599C109.233 125.805 109.542 125.908 109.749 126.011C120.683 132.5 130.482 125.084 130.482 125.084C153.175 134.972 189.69 125.496 189.69 125.496C204.647 133.118 214.136 128.586 214.136 128.586C214.343 128.483 214.446 128.38 214.652 128.277C216.922 127.144 218.985 125.702 220.738 124.054C220.944 123.848 221.254 123.642 221.46 123.436C221.77 123.127 222.079 122.818 222.388 122.509C222.595 122.303 222.801 122.097 223.007 121.891C223.317 121.582 223.523 121.273 223.729 121.067C225.38 119.11 226.102 117.462 226.411 116.638C226.514 116.535 226.514 116.432 226.514 116.329C226.514 116.329 226.514 116.329 226.514 116.226V116.123C227.03 116.226 227.546 116.329 228.062 116.329C228.268 116.329 228.371 116.329 228.577 116.432C228.577 116.432 228.577 116.432 228.681 116.432C228.887 116.432 229.196 116.432 229.403 116.535C229.506 116.535 229.506 116.535 229.609 116.535C230.022 116.535 230.434 116.535 230.847 116.638C230.95 116.638 231.053 116.638 231.156 116.638C231.569 116.638 231.981 116.638 232.394 116.638C232.497 116.638 232.497 116.638 232.6 116.638C233.013 116.638 233.426 116.535 233.838 116.535H233.941C234.354 116.535 234.766 116.432 235.179 116.329C235.179 116.329 235.179 116.329 235.282 116.329C235.695 116.226 236.107 116.226 236.52 116.123C240.852 115.093 243.431 113.136 243.431 113.136C253.54 107.368 254.365 95.4204 254.365 95.4204C254.365 94.9054 254.365 94.3904 254.365 93.9784C254.778 93.1545 254.778 92.8455 254.778 92.4335Z" stroke="#D2DEED" stroke-width="5.376" mask="url(#path-18-outside-1_2143_18481)"/>
<path d="M205.778 69.4671C205.366 69.4671 205.056 69.5701 204.644 69.6731C203.922 66.7891 200.93 64.5232 197.32 64.5232C193.916 64.5232 191.131 66.3772 190.203 68.9521C189.171 69.0551 188.243 69.3641 187.314 69.6731C181.641 72.042 182.673 79.0459 188.346 80.8999C189.584 81.3119 191.131 81.4149 192.781 81.2089C194.122 82.4448 195.876 83.1658 197.836 83.1658C201.24 83.1658 204.128 80.8999 205.056 77.8099C205.263 77.8099 205.572 77.9129 205.881 77.9129C208.254 77.9129 210.214 75.956 210.214 73.587C210.007 71.3211 208.151 69.4671 205.778 69.4671Z" fill="#FDDED5"/>
<path d="M140.176 69.9832C139.247 69.5712 138.319 69.3652 137.287 69.2622C136.359 66.6872 133.471 64.8333 130.17 64.8333C126.56 64.8333 123.465 66.9962 122.846 69.9832C122.537 69.8802 122.124 69.7772 121.712 69.7772C119.339 69.7772 117.379 71.7341 117.379 74.1031C117.379 76.472 119.339 78.429 121.712 78.429C122.021 78.429 122.227 78.429 122.537 78.326C123.465 81.4159 126.353 83.6819 129.757 83.6819C131.717 83.6819 133.471 82.9609 134.812 81.7249C136.359 81.9309 137.906 81.8279 139.247 81.4159C144.817 79.459 145.849 72.4551 140.176 69.9832Z" fill="#FDDED5"/>
<path d="M173.082 60.7102C166.584 60.8132 159.054 61.0192 152.555 61.1222C152.452 61.1222 154.515 72.143 163.799 71.731C170.916 71.422 173.289 63.3882 173.082 60.7102Z" stroke="#2359A8" stroke-width="2.4192" stroke-miterlimit="10" stroke-linecap="round" stroke-linejoin="round"/>
<path d="M181.439 56.4886C182.058 54.1196 184.328 52.2656 186.803 52.0597C189.279 51.8537 191.754 53.3986 192.786 55.6646" stroke="#2359A8" stroke-width="2.4192" stroke-miterlimit="10" stroke-linecap="round" stroke-linejoin="round"/>
<path d="M131.208 58.7544C131.827 56.3855 134.096 54.5315 136.572 54.3255C139.048 54.1195 141.523 55.6645 142.555 57.9305" stroke="#2359A8" stroke-width="2.4192" stroke-miterlimit="10" stroke-linecap="round" stroke-linejoin="round"/>
<path d="M129.969 133.221C122.954 126.217 113.052 122.2 109.442 127.247C109.442 127.247 105.316 133.015 122.851 154.439C133.579 167.519 140.593 157.117 143.894 150.113C143.894 150.113 142.347 145.581 129.969 133.221Z" fill="white"/>
<path d="M131.31 132.604C127.184 128.587 113.362 118.39 108.101 126.836C106.657 129.205 107.689 132.501 108.514 134.87C110.061 139.093 112.433 143.007 115.012 146.715C118.416 151.659 122.336 158.045 127.906 160.722C131.207 162.37 134.817 162.061 137.912 160.001C140.49 158.25 144.513 153.925 145.029 150.732C145.338 149.084 144.719 148.363 143.688 146.818C140.284 141.565 135.745 137.033 131.31 132.604C130.382 131.677 127.597 132.913 128.525 133.84C132.238 137.548 135.952 141.359 139.149 145.582C139.871 146.509 142.244 148.981 142.244 150.32C142.244 152.483 138.53 156.5 136.983 157.941C130.278 163.503 123.677 153.41 120.17 148.672C116.353 143.522 110.68 136.415 110.474 129.72C110.267 120.347 126.049 131.471 128.525 133.943C129.556 134.767 132.341 133.531 131.31 132.604Z" fill="#D2DEED"/>
<path d="M200.613 133.221C207.627 126.217 217.53 122.2 221.14 127.247C221.14 127.247 225.266 133.015 207.731 154.439C197.003 167.519 189.989 157.117 186.688 150.113C186.688 150.113 188.235 145.581 200.613 133.221Z" fill="white"/>
<path d="M199.27 132.604C203.396 128.587 217.218 118.39 222.479 126.836C223.923 129.205 222.891 132.501 222.066 134.87C220.519 139.093 218.147 143.007 215.568 146.715C212.164 151.659 208.244 158.045 202.674 160.722C199.373 162.37 195.763 162.061 192.669 160.001C190.09 158.25 186.067 153.925 185.551 150.732C185.242 149.084 185.861 148.363 186.892 146.818C190.296 141.565 194.835 137.033 199.27 132.604C200.199 131.677 202.984 132.913 202.055 133.84C198.342 137.548 194.628 141.359 191.431 145.582C190.709 146.509 188.336 148.981 188.336 150.32C188.336 152.483 192.05 156.5 193.597 157.941C200.302 163.503 206.903 153.41 210.41 148.672C214.227 143.522 219.9 136.415 220.106 129.72C220.313 120.347 204.531 131.471 202.055 133.943C201.024 134.767 198.239 133.531 199.27 132.604Z" fill="#D2DEED"/>
<path d="M55.1897 90.4758C55.1897 92.4328 55.1897 94.2868 55.1897 96.2437" stroke="#E8A523" stroke-width="2.28547" stroke-miterlimit="10" stroke-linecap="round" stroke-linejoin="round"/>
<path d="M73.7534 99.5393C75.0944 98.0973 76.5385 96.5523 77.8794 95.1104" stroke="#E8A523" stroke-width="2.28547" stroke-miterlimit="10" stroke-linecap="round" stroke-linejoin="round"/>
<path d="M86.5427 109.634C88.5026 108.501 90.4624 107.368 92.4223 106.235" stroke="#E8A523" stroke-width="2.28547" stroke-miterlimit="10" stroke-linecap="round" stroke-linejoin="round"/>
<path d="M38.5789 100.158C37.6505 98.3036 36.7222 96.3466 35.897 94.4927" stroke="#E8A523" stroke-width="2.28547" stroke-miterlimit="10" stroke-linecap="round" stroke-linejoin="round"/>
<path d="M26.5127 109.323C24.7592 108.396 23.0056 107.366 21.1489 106.439" stroke="#E8A523" stroke-width="2.28547" stroke-miterlimit="10" stroke-linecap="round" stroke-linejoin="round"/>
<path d="M95.7778 133.222C96.1904 131.883 95.5715 129.514 96.4999 129.102C98.8723 128.175 104.546 127.969 107.021 127.454C107.95 127.248 108.878 127.042 109.806 127.145C110.735 127.248 111.663 127.557 112.179 128.278C112.694 128.999 112.694 129.926 112.282 130.75C111.972 131.574 111.25 132.192 110.631 132.707C108.672 134.355 106.299 135.694 103.824 136.518C102.276 137.033 100.729 137.548 99.1818 137.754C97.4282 138.063 96.0873 138.166 96.1904 136.415C96.2936 135.591 95.2621 134.87 95.7778 133.222Z" fill="#FEED53"/>
<path d="M95.3706 129.205C99.1872 129.102 102.488 128.278 105.273 127.557C107.852 126.939 112.7 126.321 112.39 130.132C112.287 130.853 111.668 131.677 111.256 132.295C110.121 133.634 108.574 134.561 106.923 135.282C103.623 136.724 99.7029 137.547 95.9895 137.65" stroke="#E8A523" stroke-width="1.88294" stroke-miterlimit="10" stroke-linecap="round" stroke-linejoin="round"/>
<path d="M17.5625 133.221C17.1499 131.882 17.7688 129.514 16.8405 129.102C14.468 128.175 8.79477 127.969 6.31917 127.454C5.39082 127.248 4.46247 127.042 3.53412 127.145C2.60577 127.248 1.67743 127.557 1.16168 128.278C0.645927 128.999 0.645928 129.926 1.05853 130.75C1.36798 131.573 2.09003 132.191 2.70893 132.706C4.66877 134.354 7.04122 135.693 9.51682 136.517C11.0641 137.032 12.6113 137.547 14.1586 137.753C15.9121 138.062 17.2531 138.165 17.1499 136.414C17.0468 135.59 18.0783 134.869 17.5625 133.221Z" fill="#FEED53"/>
<path d="M17.9751 129.204C14.1586 129.101 10.8578 128.277 8.07271 127.556C5.49396 126.938 0.64591 126.32 0.95536 130.131C1.05851 130.852 1.67742 131.676 2.09002 132.294C3.22466 133.633 4.77191 134.56 6.42231 135.281C9.72311 136.723 13.6428 137.547 17.3562 137.65" stroke="#E8A523" stroke-width="1.88294" stroke-miterlimit="10" stroke-linecap="round" stroke-linejoin="round"/>
<path d="M46.9938 99.1421C68.2868 93.6054 90.0408 106.354 95.585 127.612C101.129 148.871 88.3652 170.594 67.0723 176.131C45.7792 181.668 24.0243 168.92 18.4801 147.662C12.9359 126.403 25.7007 104.679 46.9938 99.1421Z" fill="#FEED53" stroke="#E8A523" stroke-width="2.016"/>
<path d="M58.4854 114.475C57.9697 114.681 57.4539 115.093 57.2476 115.196C55.8035 116.02 54.2563 115.917 52.8122 115.093C52.3996 114.887 51.987 114.372 51.4712 114.372C50.7492 114.475 50.9555 115.299 51.1618 115.711C51.8838 117.153 53.4311 118.183 54.9783 118.286C56.6287 118.389 58.2791 117.462 59.1043 116.123C59.3106 115.814 59.5169 115.299 59.5169 114.784C59.4138 114.166 58.898 114.166 58.4854 114.475Z" fill="#E8A523"/>
<path d="M48.271 110.768C47.3426 111.18 46.1048 110.974 45.6922 109.635C45.3828 108.605 46.0017 107.369 47.0332 107.06C47.8584 106.751 48.8899 107.163 49.3025 107.987C50.0245 109.223 49.3025 110.356 48.271 110.768Z" fill="#E8A523"/>
<path d="M65.6047 111.18C64.6764 111.592 63.4386 111.386 63.026 110.047C62.7165 109.017 63.3354 107.781 64.3669 107.472C65.1921 107.163 66.2236 107.575 66.6362 108.399C67.2551 109.635 66.5331 110.768 65.6047 111.18Z" fill="#E8A523"/>
<path d="M45.5958 115.506C45.5958 118.802 42.9139 121.583 39.5099 121.583C36.106 121.583 33.4241 118.905 33.4241 115.506C33.4241 112.21 36.106 109.429 39.5099 109.429C42.9139 109.429 45.5958 112.107 45.5958 115.506Z" fill="#FDC05C"/>
<path d="M79.8406 117.463C79.8406 120.759 77.1587 123.54 73.7548 123.54C70.454 123.54 67.6689 120.862 67.6689 117.463C67.6689 114.167 70.3508 111.386 73.7548 111.386C77.1587 111.489 79.8406 114.167 79.8406 117.463Z" fill="#FDC05C"/>
<path d="M72.7199 196.358C74.2671 195.843 74.9892 194.711 73.4419 193.475C72.7199 192.857 71.8947 192.651 70.9663 192.445C62.6112 190.591 54.0497 191.312 45.5914 192.033C44.3536 192.136 41.2591 192.445 41.0528 194.196C40.8465 197.079 52.193 198.006 53.8434 198.212C60.2387 198.933 66.634 198.315 72.7199 196.358Z" fill="#2359A8"/>
</svg>
